<svg xmlns="http://www.w3.org/2000/svg" xmlns:svg="http://www.w3.org/2000/svg" id="svg8" width="489.153" height="246.725" version="1.1" viewBox="0 0 129.422 65.279"><metadata id="metadata5"/><g style="display:none;opacity:1" id="layer2" transform="translate(-86.541008,-200.88015)"><rect id="rect3787" width="413.506" height="342.446" x="-145.143" y="-11.429" style="fill:#000;stroke-width:.26458332"/></g><g id="layer1" transform="translate(-86.541008,-200.88015)"><g id="g3795" transform="matrix(0.44893183,0,0,0.44893183,117.99207,127.66721)"><path id="path3797" d="m -22.733,308.41186 c -0.09313,-0.04 -0.290564,-0.0754 -0.438735,-0.0787 -0.313889,-0.007 -0.547058,-0.2791 -0.694185,-0.81028 -0.06798,-0.24543 -0.09393,-10.78174 -0.09427,-38.27271 -4.24e-4,-33.6605 0.01402,-37.98969 0.128156,-38.42789 0.265769,-1.02035 0.664487,-1.28009 1.945705,-1.26751 0.76983,0.008 1.169377,0.0868 4.402666,0.87253 8.1460544,1.97972 12.4830334,2.96773 12.6869184,2.89022 0.109066,-0.0415 0.556677,-0.31086 0.994692,-0.59866 3.18229303,-2.09087 7.2542897,-2.89329 14.0441866,-2.76751 3.716924,0.0689 6.062282,0.42181 8.807869,1.3255 8.382762,2.75913 13.667003,8.63603 15.700832,17.46179 1.679744,7.2892 1.480667,14.53153 -0.586935,21.35274 -0.641198,2.11536 -1.672912,4.29476 -2.916792,6.16143 -1.063879,1.59656 -1.713408,2.38108 -3.217519,3.88623 -4.530962,4.53407 -9.721918,7.10838 -15.531276,7.70228 -0.649969,0.0664 -1.743711,0.0873 -3.0903332,0.0588 -3.1526369,-0.0666 -4.226454,-0.30152 -8.376764,-1.83286 -1.24238337,-0.4584 -2.4112787,-0.88174 -2.5975453,-0.94075 -0.1862667,-0.059 -0.6737511,-0.25415 -1.0832981,-0.43365 -0.4095471,-0.17949 -0.765416,-0.32635 -0.790821,-0.32635 -0.02541,0 -0.03468,5.17326 -0.02061,11.49611 l 0.02558,11.49612 -0.208425,0.41587 c -0.228176,0.45527 -0.274056,0.48851 -0.865808,0.6273 -0.488264,0.11451 -17.9577484,0.12404 -18.2232854,0.01 z M 5.8944092,274.246 c 2.9663067,-0.51225 5.1746508,-1.82247 6.4881758,-3.84948 1.670721,-2.57822 2.371233,-5.23903 2.776769,-10.54728 0.104488,-1.3677 0.04409,-2.25835 -0.349842,-5.15838 -0.529996,-3.90178 -1.481512,-6.28053 -3.271082,-8.17756 -1.6894001,-1.79086 -3.5240251,-2.56769 -6.5560603,-2.77601 -4.10331147,-0.28193 -6.8962768,1.29438 -7.9317628,4.47657 -0.4538785,1.39483 -0.4535755,1.38874 -0.4970305,9.99066 -0.04221,8.35473 -0.0016,9.83067 0.301326,10.96434 0.6226404,2.32983 2.0474229,3.91824 4.245764,4.73336 1.2197275,0.45226 3.3011973,0.60154 4.7937428,0.34378 z m 73.3112548,13.67547 c -3.508476,-0.30928 -6.93685,-1.41364 -9.310336,-2.99909 -3.044816,-2.03388 -4.96448,-4.77944 -5.871218,-8.39717 -0.429133,-1.71213 -0.481872,-2.33349 -0.480729,-5.66302 9.31e-4,-2.81943 0.01587,-3.13054 0.198594,-4.14867 0.306316,-1.70672 0.692768,-2.87848 1.452025,-4.40266 0.81208,-1.63023 1.523069,-2.64919 2.708664,-3.8819 1.708785,-1.77671 3.637399,-3.05604 6.062074,-4.02121 1.64526,-0.65492 5.88292,-1.96423 12.098926,-3.73821 4.899194,-1.39819 9.302733,-2.69094 9.596247,-2.81719 0.933069,-0.40135 1.429791,-1.13281 1.342652,-1.97713 -0.104292,-1.01048 -0.80043,-1.94976 -1.78733,-2.41158 -1.036616,-0.4851 -4.484937,-0.80141 -7.95384,-0.7296 -5.193784,0.10751 -8.923926,1.00754 -13.940062,3.36353 -2.125125,0.99813 -2.667051,1.20309 -3.302,1.24883 -0.71374,0.0514 -1.200539,-0.0862 -1.608514,-0.45481 -0.647226,-0.58473 -0.635153,-0.47066 -0.635153,-6.0014 0,-5.51167 -0.0076,-5.4353 0.623816,-6.27403 0.53268,-0.70758 0.883734,-0.87761 3.723267,-1.80326 5.272998,-1.71893 6.401926,-1.964 10.938383,-2.37455 2.930652,-0.26522 4.571534,-0.34372 8.336534,-0.39884 4.817906,-0.0705 7.648778,0.11919 10.378656,0.69557 4.55994,0.96278 8.4955,2.99405 11.17353,5.76704 2.0951,2.16938 3.19338,4.60784 3.46843,7.70075 0.0606,0.6813 0.0815,7.59555 0.0651,21.45232 -0.0232,19.49781 -0.0314,20.45995 -0.17662,20.72591 -0.43832,0.80282 -0.91159,0.80129 -5.86803,-0.0189 -4.26282,-0.70544 -10.900402,-1.76333 -12.269877,-1.95557 -0.791532,-0.11111 -0.999321,-0.11154 -1.719089,-0.004 -0.922901,0.13847 -2.062006,0.51314 -3.601788,1.1847 -2.659702,1.16001 -5.121351,1.83034 -8.113996,2.20953 -1.249231,0.15829 -4.350918,0.22795 -5.528276,0.12417 z m 12.321218,-12.78776 c 2.184036,-0.27037 3.175644,-0.65491 4.132919,-1.60274 0.450155,-0.44571 0.684911,-0.76982 0.960789,-1.32647 l 0.365074,-0.73664 0.02403,-5.66536 0.02404,-5.66536 -0.278037,0.06 c -0.549893,0.11871 -6.833751,2.0739 -8.029964,2.49848 -0.672499,0.23869 -1.541712,0.58649 -1.931577,0.77286 -2.011214,0.96148 -3.003169,3.0874 -2.723489,5.83688 0.175818,1.72847 0.657987,2.90579 1.598498,3.90307 1.033026,1.09538 2.263961,1.68684 4.077504,1.95922 0.431521,0.0648 1.082675,0.0524 1.780218,-0.034 z m 90.167778,12.78958 c -7.36146,-0.48394 -12.23405,-3.26525 -14.53753,-8.2981 -0.67738,-1.48001 -1.4059,-4.09422 -1.73421,-6.223 -0.24463,-1.58624 -0.26789,-4.61193 -0.0462,-6.01133 0.53495,-3.37702 1.91453,-6.22851 4.2702,-8.82622 1.57371,-1.7354 3.90698,-3.30924 6.50209,-4.38583 1.39214,-0.57752 2.67019,-0.96992 7.19667,-2.20955 4.72418,-1.29378 12.25582,-3.43125 13.54701,-3.84462 1.21916,-0.39031 1.82736,-0.8676 2.06973,-1.62424 0.14929,-0.46605 -0.0135,-1.13036 -0.42966,-1.7536 -0.52862,-0.7916 -1.29743,-1.30866 -2.32792,-1.56562 -1.34183,-0.33458 -4.99861,-0.56079 -7.4496,-0.46083 -5.02273,0.20485 -9.62273,1.39531 -14.40084,3.7269 -1.70531,0.83214 -2.37548,1.04793 -3.0412,0.97922 -0.80804,-0.0834 -1.1515,-0.38981 -1.44253,-1.28695 -0.11848,-0.36518 -0.14028,-1.04549 -0.15874,-4.953 -0.0119,-2.51663 0.014,-4.77424 0.0583,-5.08 0.15083,-1.04115 0.68984,-1.87704 1.48474,-2.3025 0.39688,-0.21243 4.47458,-1.54825 6.5027,-2.13023 2.28156,-0.65471 3.8773,-0.92367 7.3268,-1.23493 2.95633,-0.26676 4.51842,-0.34396 8.08253,-0.39943 3.60051,-0.056 5.98929,0.0354 8.1407,0.31146 5.56489,0.71421 10.29284,2.83776 13.32992,5.98713 1.45574,1.50955 2.38608,3.04526 3.06011,5.05127 0.30787,0.91626 0.35424,1.16401 0.43749,2.33723 0.11554,1.62827 0.13178,41.42714 0.0172,42.23055 -0.109,0.76449 -0.31533,0.89771 -1.44812,0.93497 -0.744,0.0245 -1.4216,-0.0659 -5.588,-0.74494 -5.14972,-0.83934 -8.42003,-1.34122 -10.42786,-1.60032 -1.02014,-0.13163 -1.42014,-0.14917 -1.94734,-0.0854 -0.85884,0.1039 -1.73555,0.34398 -2.64432,0.72412 -4.50138,1.88291 -7.82967,2.65682 -11.90448,2.76806 -0.79164,0.0216 -1.91559,0.008 -2.49767,-0.0303 z m 13.21366,-13.16012 c 1.21685,-0.15095 1.36765,-0.18794 1.94167,-0.4762 0.55706,-0.27974 1.1917,-0.89587 1.52185,-1.47745 0.43587,-0.76778 0.51355,-1.20193 0.606,-3.38666 0.10849,-2.56357 0.015,-9.5528 -0.1271,-9.49938 -0.0527,0.0198 -1.2959,0.42585 -2.76275,0.90234 -2.79084,0.90657 -5.95514,2.01269 -7.01489,2.45214 -2.31551,0.96018 -3.3233,2.95137 -3.05538,6.03682 0.24277,2.79595 1.30322,4.50931 3.17875,5.13589 1.21191,0.40488 3.81785,0.54745 5.71185,0.3125 z m -57.75367,13.07382 c -4.37685,-0.21245 -8.44097,-1.07246 -12.01955,-2.54346 -2.79044,-1.14704 -3.8339,-2.03075 -4.33127,-3.66822 -0.16966,-0.55858 -0.1757,-0.6953 -0.1161,-2.62818 0.0775,-2.51472 0.0683,-3.2781 -0.0507,-4.19733 -0.31315,-2.41886 0.49348,-3.51243 2.47791,-3.35939 0.70057,0.054 1.04924,0.17183 3.41937,1.1555 1.65591,0.68723 4.98845,1.79443 6.223,2.06752 1.95367,0.43215 2.7151,0.51445 4.74133,0.51249 1.60167,-0.002 2.07705,-0.0325 2.98553,-0.19415 1.48683,-0.26463 1.82997,-0.38023 2.42173,-0.81587 0.85857,-0.63203 1.78941,-1.98681 1.78941,-2.60435 0,-0.35163 -0.32918,-0.83847 -0.85904,-1.27051 -0.35998,-0.29352 -5.27328,-3.08806 -10.19177,-5.79679 -4.24505,-2.33785 -5.80109,-3.41354 -7.69272,-5.31799 -2.7609,-2.77961 -3.84446,-5.17148 -4.13197,-9.12096 -0.41172,-5.65582 1.34282,-10.94165 4.78179,-14.40589 2.9581,-2.97985 7.36674,-4.79572 13.52171,-5.56946 1.41543,-0.17794 7.15449,-0.15121 8.72066,0.0406 3.5726,0.43755 8.10133,1.39131 9.71192,2.04534 0.87584,0.35566 1.78285,0.95517 2.22257,1.46905 0.45607,0.53298 0.89926,1.43649 1.10479,2.25229 0.15522,0.61613 0.16861,0.95147 0.16722,4.191 -0.002,3.91745 -0.0612,4.82717 -0.35415,5.41069 -0.32531,0.64801 -0.518,0.73541 -1.6193,0.73442 l -0.94605,-8.4e-4 -2.159,-0.85778 c -3.80249,-1.51075 -4.95635,-1.87621 -7.40833,-2.34646 -2.78831,-0.53475 -4.67142,-0.47433 -6.63056,0.21276 -1.08741,0.38135 -1.66051,0.71671 -2.17561,1.27308 -0.55145,0.59564 -0.75758,1.14418 -0.62103,1.65264 0.22045,0.82089 0.68368,1.30446 2.3152,2.41681 1.36413,0.93003 2.31725,1.45993 5.32835,2.9623 4.79044,2.39018 6.90972,3.70094 9.498,5.87447 4.27305,3.58831 5.95191,7.30957 5.76328,12.77454 -0.11129,3.22436 -0.69738,5.75993 -1.87879,8.128 -0.72355,1.45034 -1.47919,2.49496 -2.66651,3.68627 -2.64072,2.64963 -5.94543,4.40315 -9.72403,5.1597 -2.55924,0.5124 -8.22195,0.84297 -11.61731,0.67816 z m -96.842574,-0.80248 c -0.20364,-0.064 -0.480763,-0.22214 -0.615823,-0.35155 -0.534941,-0.5125 -0.495588,2.54547 -0.495588,-38.51144 0,-41.0493 -0.03917,-37.99911 0.494513,-38.51041 0.511573,-0.49012 0.278519,-0.47859 9.674775,-0.47859 6.109292,0 8.748996,0.028 9.067046,0.0961 0.614299,0.13158 1.025313,0.5426 1.156894,1.1569 0.13324,0.62203 0.138235,74.65755 0.0051,75.27841 -0.126899,0.5917 -0.388823,0.94555 -0.882769,1.1926 l -0.423214,0.21166 -8.805334,0.0163 c -7.263951,0.0135 -8.870145,-0.004 -9.175588,-0.1 z M -48.387,215.44666 c -3.751034,-0.19252 -7.20194,-0.9509 -10.510415,-2.30979 -4.782673,-1.96438 -8.231572,-4.96385 -10.022051,-8.71606 -0.944294,-1.97891 -1.143283,-3.10793 -1.137976,-6.45662 0.0054,-3.38504 0.179786,-4.53527 1.024328,-6.75496 2.224881,-5.84758 6.405509,-10.60273 13.322448,-15.15328 4.754928,-3.1282 9.600108,-5.24071 14.986,-6.53391 2.786498,-0.66907 4.987019,-0.97605 10.075333,-1.40553 l 3.090333,-0.26085 0.6985,0.19282 c 0.641128,0.17699 0.698343,0.21041 0.696593,0.40693 -0.0015,0.17352 -0.133965,0.3015 -0.6985,0.67507 -3.68724,2.43996 -6.121857,3.6898 -8.238208,4.22916 -0.375988,0.0958 -1.404688,0.30665 -2.286,0.46851 -7.393777,1.35792 -13.603481,4.25722 -19.043718,8.89145 -1.023272,0.87167 -2.831212,2.65968 -3.428643,3.39084 -2.006932,2.45619 -2.951923,5.16913 -2.50316,7.18624 0.440741,1.98104 2.025123,3.64898 4.382734,4.61388 1.437231,0.58821 3.582997,1.08179 5.55854,1.27861 1.264628,0.12599 3.968527,0.10655 5.684862,-0.0409 7.17387,-0.61621 13.259307,-2.46715 18.669,-5.67834 3.273939,-1.94341 5.990973,-2.73573 10.287,-2.99982 1.653131,-0.10162 2.124932,-0.15969 3.77734,-0.46487 0.64686,-0.11948 1.458739,-0.2114 1.866993,-0.2114 0.694248,0 0.731684,0.01 0.960793,0.2552 0.271554,0.2907 0.303757,0.44474 0.424538,2.0308 0.04787,0.62865 0.185549,2.1717 0.305947,3.429 0.120398,1.2573 0.224114,2.7051 0.230481,3.21733 0.01076,0.86553 -0.0043,0.95825 -0.212433,1.31233 -0.283094,0.4815 -2.828494,2.98104 -4.217078,4.14111 -5.445442,4.54929 -12.230033,7.94254 -19.554803,9.78017 -4.651773,1.16703 -9.835885,1.71028 -14.188778,1.48686 z m 27.453167,-5.13631 -1.248834,-0.0317 0.0051,-0.23057 c 0.0044,-0.20231 0.26194,-0.41563 2.100971,-1.74051 2.365197,-1.70394 3.132273,-2.20925 4.145515,-2.73082 0.856663,-0.44097 1.509907,-0.59716 3.180692,-0.76048 1.587752,-0.1552 2.305199,-0.28556 4.2319894,-0.76895 5.242186,-1.31515 10.2902709,-3.59864 14.8833469,-6.73245 3.9147707,-2.671 5.9201187,-4.80045 7.3617827,-7.81736 0.573891,-1.20096 1.087191,-2.77193 1.088732,-3.33211 0.0053,-1.90669 -1.746553,-4.44317 -3.801225,-5.50392 -1.9614118,-1.01261 -5.0072527,-1.66943 -8.177867,-1.76354 -4.6322376,-0.13749 -10.1434926,0.76967 -15.197667,2.50157 -2.512032,0.8608 -4.157948,1.55393 -7.365999,3.10201 -2.287085,1.10366 -2.752214,1.26378 -4.529667,1.55934 -3.08107,0.51234 -9.190376,1.27706 -10.205085,1.27741 l -0.722419,2.5e-4 -0.36192,-2.64583 c -0.54664,-3.99623 -0.623617,-4.7359 -0.63662,-6.11717 l -0.01196,-1.27 0.317731,-0.66544 c 0.433317,-0.90752 0.675436,-1.1891 1.914519,-2.22657 4.517388,-3.78235 9.201186,-6.56493 13.944798,-8.28442 2.679101,-0.97114 6.642144,-1.95801 10.4082854,-2.59184 1.869095,-0.31456 4.586343,-0.45624 8.72066643,-0.4547 4.87643327,0.002 6.46242107,0.1507 8.71899347,0.81845 3.1542607,0.93339 5.9410907,2.23879 8.2785677,3.87781 1.196534,0.83901 3.018027,2.70177 3.810025,3.89637 1.174386,1.77136 1.941737,3.62796 2.409452,5.82963 0.208966,0.9837 0.227779,1.23237 0.231538,3.06037 0.0042,2.07938 -0.04401,2.54136 -0.426034,4.07607 -0.570382,2.29143 -1.545531,4.36526 -3.258879,6.93059 -1.507524,2.25716 -2.869387,3.88575 -4.957902,5.92892 -5.09218,4.98162 -11.5379683,8.49179 -20.1047416,10.9484 -2.611832,0.74896 -5.1128234,1.25151 -8.2900194,1.66578 -1.447134,0.18869 -3.851875,0.26147 -6.455833,0.1954 z" style="fill:#fefefe;stroke-width:.08466667"/></g></g></svg>